<svg width="18" height="18" viewBox="0 0 18 18" fill="none" xmlns="http://www.w3.org/2000/svg">
<g clip-path="url(#clip0)">
<path d="M17.5958 7.38281C17.6734 7.38281 17.7364 7.44578 17.7364 7.52344V9C17.7364 9.55266 17.685 10.093 17.5866 10.6172C16.825 14.6887 13.238 17.7658 8.93845 17.7361C4.11407 17.7029 0.253103 13.8048 0.263755 8.98031C0.274372 4.1645 4.18178 0.263672 9.00005 0.263672C11.3607 0.263672 13.5025 1.20016 15.075 2.72137C15.1318 2.77629 15.1333 2.86678 15.0774 2.92264L12.9885 5.01156C12.9347 5.06535 12.8478 5.06672 12.7927 5.0143C11.8058 4.07482 10.4704 3.49805 9.00005 3.49805C5.96378 3.49805 3.5188 5.92566 3.49824 8.96186C3.47749 12.0179 5.9488 14.502 9.00005 14.502C11.4758 14.502 13.5697 12.8665 14.2601 10.6172H9.14067C9.06301 10.6172 9.00005 10.5542 9.00005 10.4766V7.52344C9.00005 7.44578 9.06301 7.38281 9.14067 7.38281H17.5958Z" fill="#2196F3"/>
<path d="M17.5958 7.38281H16.5411C16.6187 7.38281 16.6817 7.44578 16.6817 7.52344V9C16.6817 9.55266 16.6304 10.093 16.5319 10.6172C15.8053 14.5015 12.5072 17.4806 8.47214 17.7206C8.62651 17.7297 8.78193 17.735 8.93845 17.7361C13.238 17.7658 16.825 14.6888 17.5866 10.6172C17.685 10.093 17.7364 9.55266 17.7364 9V7.52344C17.7364 7.44578 17.6734 7.38281 17.5958 7.38281Z" fill="#1E88E5"/>
<path d="M4.00252 6.69586L1.34927 4.77879C2.83779 2.08652 5.70619 0.263672 8.99998 0.263672C11.3606 0.263672 13.5024 1.20016 15.0749 2.72137C15.1317 2.77629 15.1332 2.86678 15.0773 2.92264L12.9885 5.01152C12.9348 5.06521 12.8479 5.06686 12.7929 5.01451C11.8059 4.07493 10.4705 3.49805 8.99998 3.49805C6.78408 3.49805 4.87404 4.80797 4.00252 6.69586V6.69586Z" fill="#F44336"/>
<path d="M3.23663 6.14243L4.00258 6.69586C4.79806 4.97268 6.45891 3.73162 8.42767 3.52807C8.4425 3.52649 8.4567 3.52452 8.47179 3.52308C8.29854 3.50666 8.12297 3.49805 7.94536 3.49805C5.94363 3.49805 4.19907 4.55337 3.23663 6.14243V6.14243Z" fill="#E53935"/>
<path d="M14.0203 2.72137C14.077 2.77629 14.0785 2.86678 14.0227 2.92264L12.3272 4.61813C12.4896 4.74166 12.6451 4.87382 12.7927 5.01427C12.8478 5.06672 12.9347 5.06531 12.9885 5.01152L15.0774 2.92261C15.1332 2.86675 15.1318 2.77625 15.075 2.72134C13.5024 1.20016 11.3606 0.263672 8.99998 0.263672C8.82283 0.263672 8.64709 0.269578 8.47253 0.279984C10.6239 0.408129 12.5657 1.31428 14.0203 2.72137V2.72137Z" fill="#E53935"/>
<path d="M15.4086 14.9372C13.8132 16.6588 11.5322 17.7363 8.99994 17.7363C5.57959 17.7363 2.61838 15.7708 1.18436 12.9073L3.89315 11.051C4.70596 13.0736 6.68631 14.502 8.99994 14.502C10.4519 14.502 11.7724 13.9395 12.7553 13.0205L15.4086 14.9372Z" fill="#4CAF50"/>
<path d="M3.89323 11.051L3.09448 11.5984C4.02222 13.3267 5.84658 14.502 7.94534 14.502C8.12285 14.502 8.29828 14.4933 8.47146 14.4768C6.38813 14.2782 4.6434 12.9177 3.89323 11.051V11.051Z" fill="#43A047"/>
<path d="M8.99998 17.7363C11.5323 17.7363 13.8132 16.6588 15.4086 14.9372L14.7587 14.4677C13.2607 16.332 11.0135 17.5688 8.47397 17.7204C8.64803 17.7308 8.82335 17.7363 8.99998 17.7363V17.7363Z" fill="#43A047"/>
<path d="M3.49805 9C3.49805 9.72493 3.63832 10.4172 3.8932 11.051L1.18441 12.9073C0.595195 11.7316 0.263672 10.4045 0.263672 9C0.263672 7.46895 0.657422 6.03 1.3493 4.77879L4.00254 6.69586C3.67875 7.39653 3.49805 8.17735 3.49805 9V9Z" fill="#FFC107"/>
<path d="M3.09444 11.5984L3.89319 11.051C3.63831 10.4172 3.49804 9.72493 3.49804 9.00001C3.49804 8.17735 3.67874 7.39653 4.00253 6.69587L3.23658 6.14244C2.73919 6.96369 2.45052 7.92739 2.44349 8.96186C2.43702 9.91583 2.67341 10.8141 3.09444 11.5984V11.5984Z" fill="#FFB300"/>
<path d="M17.5961 7.11914H15.7693C15.6237 7.11914 15.5056 7.2372 15.5056 7.38281C15.5056 7.52843 15.6237 7.64648 15.7693 7.64648H17.473V9C17.473 9.52759 17.4241 10.0554 17.3277 10.5687C17.0402 12.1057 16.3486 13.4786 15.3756 14.5877L13.1617 12.9885C13.7815 12.3399 14.25 11.5495 14.5125 10.6946C14.537 10.6146 14.5222 10.5277 14.4725 10.4605C14.4227 10.3932 14.3441 10.3535 14.2604 10.3535H9.26403V7.64648H14.6281C14.7737 7.64648 14.8917 7.52843 14.8917 7.38281C14.8917 7.2372 14.7737 7.11914 14.6281 7.11914H9.14098C8.91805 7.11914 8.73668 7.30051 8.73668 7.52344V10.4766C8.73668 10.6995 8.91805 10.8809 9.14098 10.8809H13.891C13.1179 12.9034 11.1956 14.2383 9.00035 14.2383C7.85145 14.2383 6.76094 13.8734 5.84673 13.1829C5.73054 13.0952 5.56517 13.1182 5.47742 13.2344C5.38963 13.3507 5.41273 13.516 5.52892 13.6037C6.53541 14.3639 7.73582 14.7656 9.00035 14.7656C10.2587 14.7656 11.4544 14.3674 12.4581 13.6139C12.5664 13.5327 12.6715 13.4473 12.7736 13.3587L15.0126 14.9761C13.4663 16.53 11.3284 17.4727 9.00011 17.4727C8.98032 17.4727 8.96038 17.4726 8.94059 17.4724C5.73852 17.4504 2.95176 15.6364 1.53042 12.99L3.78014 11.4484C4.00855 11.9353 4.30555 12.3916 4.6664 12.8025C4.7185 12.8619 4.79138 12.8922 4.86464 12.8922C4.92641 12.8922 4.98843 12.8706 5.03853 12.8267C5.14793 12.7306 5.15876 12.564 5.06268 12.4546C4.21534 11.4896 3.75353 10.2498 3.76225 8.96365C3.78165 6.09529 6.1315 3.76172 9.00035 3.76172C10.351 3.76172 11.6333 4.2744 12.6112 5.20527C12.7711 5.3575 13.0189 5.35433 13.1752 5.19799L15.2641 3.10908C15.3413 3.03191 15.3833 2.92932 15.3824 2.8202C15.3815 2.71062 15.3376 2.60824 15.2586 2.53185C13.5709 0.899156 11.3483 0 9.00035 0C7.63334 0 6.32032 0.298758 5.0978 0.887906C4.96663 0.951117 4.91154 1.10872 4.97475 1.23993C5.03796 1.37106 5.19546 1.42615 5.32677 1.36297C6.4773 0.808488 7.71325 0.527344 9.00035 0.527344C11.1693 0.527344 13.2247 1.34248 14.8022 2.82526L12.8865 4.74096C11.8218 3.76843 10.4466 3.23438 9.00035 3.23438C7.46174 3.23438 6.01721 3.82743 4.93278 4.9043C4.51484 5.31935 4.16873 5.78855 3.90017 6.29634L1.69503 4.70303C2.34865 3.59248 3.25821 2.62877 4.37692 1.89886C4.49888 1.81927 4.53323 1.65589 4.45367 1.53397C4.37411 1.41198 4.21074 1.37767 4.08878 1.45723C1.53549 3.12314 0.00710381 5.93529 0.000388969 8.97971C-0.00491963 11.3833 0.91867 13.6423 2.60097 15.3405C4.28341 17.0388 6.53358 17.9832 8.93697 17.9998C8.95771 18 8.97817 18 8.99891 18C11.1018 18 13.1451 17.2616 14.7584 15.9172C16.3668 14.5769 17.4634 12.7119 17.8461 10.6659C17.9485 10.1206 18.0004 9.56018 18.0004 9V7.52344C18.0004 7.30051 17.819 7.11914 17.5961 7.11914V7.11914ZM1.43993 5.16934L3.67183 6.78196C3.39033 7.46265 3.24004 8.19932 3.23487 8.9601C3.23023 9.64491 3.34716 10.3177 3.57434 10.9502L1.29365 12.5131C0.799807 11.436 0.524955 10.2394 0.527733 8.98091C0.530686 7.63204 0.8511 6.33164 1.43993 5.16934V5.16934Z" fill="black"/>
</g>
<defs>
<clipPath id="clip0">
<rect width="18" height="18" fill="white"/>
</clipPath>
</defs>
</svg>
