<svg width="661" height="700" viewBox="0 0 661 700" fill="none" xmlns="http://www.w3.org/2000/svg">
<path fill-rule="evenodd" clip-rule="evenodd" d="M326.248 114.743C332.875 105.757 337.036 95.0215 335.408 83.4336C330.717 50.0459 284.568 60.7007 276.671 78.272C268.775 95.8434 272.847 138.724 284.79 140.927C289.552 141.806 299.312 138.15 309.029 131.319L305.805 176.85L343.398 174.213L326.248 114.743Z" fill="#915B3C"/>
<path fill-rule="evenodd" clip-rule="evenodd" d="M351.004 71.1157C352.134 69.8262 352.676 68.0607 353.135 66.3882C353.612 64.6509 354.07 62.8972 354.342 61.1046C354.886 57.5228 354.61 53.4668 351.906 50.9047C349.738 48.8501 346.645 48.0772 343.839 48.0588C341.97 48.0463 340.078 48.4409 338.337 49.1524C336.609 49.8583 335.166 51.1249 333.501 51.9649C333.171 48.1692 332.243 44.2384 330.091 41.1286C328.02 38.1364 324.943 36.5915 321.546 36.3639C318.059 36.1303 314.705 37.1784 311.73 39.0689C310.985 39.5424 310.249 40.0353 309.55 40.5838C308.964 41.0431 308.36 41.5891 307.651 41.8089C306.861 42.0542 306.43 41.6174 305.866 41.0669C305.206 40.4215 304.474 39.8636 303.706 39.3774C300.311 37.2277 296.006 36.5477 292.365 38.2341C290.687 39.0111 289.089 40.2429 288.027 41.8605C287.08 43.3024 286.488 45.5258 285.116 46.5804C284.533 47.028 284.065 46.5219 283.481 46.1644C282.605 45.6273 281.763 45.0258 280.877 44.5056C279.634 43.7748 278.306 43.2559 276.908 43.0337C274.861 42.7082 272.084 43.0127 271.692 45.6947C271.545 46.702 271.785 47.7516 271.925 48.7464C272.116 50.1124 272.312 51.4777 272.527 52.84C272.69 53.8744 272.874 54.8716 273.142 55.8799C273.284 56.4173 273.683 57.41 273.487 57.9719C273.243 58.6742 271.87 58.3809 271.297 58.4449C270.165 58.5715 269.038 58.8508 268.022 59.4102C267.234 59.8439 266.417 60.4577 266.139 61.4156C265.968 62.0041 266.064 62.5894 266.205 63.1726C266.374 63.8725 266.264 64.2578 266.224 64.9787C264.646 64.3337 259.244 63.0335 258.77 65.8168C258.612 66.7436 259.188 67.7379 259.626 68.4794C260.395 69.7801 261.366 70.9501 262.352 72.0616C264.41 74.3804 266.809 76.3366 269.358 77.9748C266.608 79.4373 266.127 83.2162 268.739 85.2644C269.893 86.1686 271.368 86.2846 272.732 86.126C273.232 86.0679 273.941 85.8244 274.341 85.8842C274.556 85.9163 274.796 86.0804 275.091 86.0799C277.033 86.0769 279.181 85.4581 281.04 84.8965C284.352 83.8959 287.426 82.0764 289.859 79.4631C290.482 78.7928 291.009 78.3951 291.908 78.3414C292.696 78.2942 293.483 78.4561 294.271 78.4209C296.355 78.3283 298.161 77.1784 300.046 76.3651C300.346 78.9701 301.291 81.7962 302.522 84.0724C303.527 85.9286 305.365 86.0797 307.163 86.1227C312.915 86.2604 318.607 85.2578 324.329 84.8648C318.878 86.5062 313.191 87.4239 307.805 89.2834C305.37 90.1238 307.382 91.6651 308.524 92.7513C310.404 94.54 311.868 96.8168 312.943 99.2483C315.406 95.5229 320.032 92.8577 324.35 93.6465C329.122 94.5178 332.865 100.633 330.186 105.405C328.63 108.176 325.559 109.419 323.023 110.74C325.212 112.72 325.924 115.822 327.336 118.377C328.032 119.637 328.985 121.051 330.371 121.41C330.884 121.543 331.472 121.516 331.896 121.897C332.421 122.369 332.577 122.927 333.233 123.318C335.849 124.88 339.738 124.473 341.791 122.051C343.648 119.861 342.902 116.655 341.086 114.694C343.668 113.398 348.413 111.631 347.066 107.558C352.801 106.771 366.138 96.4361 357.928 90.1424C362.004 87.4438 365.494 81.3024 362.407 76.3206C360.03 72.4845 355.024 71.0462 351.004 71.1157Z" fill="#191847"/>
<path fill-rule="evenodd" clip-rule="evenodd" d="M374.248 311.181L257.6 506.443L170.147 671.521H151.31L297.839 311.181L374.248 311.181Z" fill="#784931"/>
<path fill-rule="evenodd" clip-rule="evenodd" d="M181.664 663.901C183.42 668.595 184.298 672.107 184.298 674.438C184.298 677.272 183.827 681.408 182.884 686.846C179.6 686.846 150.086 686.846 94.3422 686.846C92.0413 679.23 93.3695 675.118 98.3268 674.511C103.284 673.903 107.402 673.355 110.681 672.866L151.834 654.496C152.626 654.143 153.554 654.499 153.907 655.292C153.913 655.305 153.919 655.319 153.925 655.333L156.57 661.758C161.159 663.902 164.888 664.974 167.758 664.974C170.089 664.974 173.308 664.031 177.416 662.146L177.415 662.146C178.992 661.422 180.855 662.115 181.578 663.693C181.609 663.761 181.638 663.83 181.664 663.901Z" fill="#E4E4E4"/>
<path fill-rule="evenodd" clip-rule="evenodd" d="M194.435 645.087L158.109 634.085C174.024 586.446 193.531 534.021 216.629 476.81C239.726 419.6 264.533 364.39 291.047 311.181H393.645C364.166 378.488 332.915 439.645 299.892 494.652C266.868 549.659 231.715 599.804 194.435 645.087Z" fill="#5C63AB"/>
<path fill-rule="evenodd" clip-rule="evenodd" d="M381.914 311.181C392.924 379.797 414.158 467.463 416.162 470.168C417.498 471.972 465.593 488.109 560.446 518.578L556.377 535.209C443.264 518.868 383.664 506.19 377.575 497.175C368.442 483.653 322.839 376.825 305.176 311.181H381.914Z" fill="#915B3C"/>
<path fill-rule="evenodd" clip-rule="evenodd" d="M527.103 504.201L519.936 530.987C435.335 538.417 383.497 533.049 364.424 514.882C345.351 496.716 323.614 428.816 299.212 311.181H397.045C412.506 407.508 421.149 457.694 422.975 461.737C424.802 465.781 459.511 479.936 527.103 504.201Z" fill="#8991DC"/>
<path fill-rule="evenodd" clip-rule="evenodd" d="M555.792 511.651C560.716 510.735 564.324 510.48 566.617 510.885C569.406 511.378 573.394 512.562 578.581 514.437C578.011 517.675 572.89 546.775 563.218 601.738C555.325 602.682 551.51 600.658 551.772 595.665C552.035 590.671 552.21 586.515 552.297 583.197L541.363 539.428C541.153 538.585 541.664 537.732 542.506 537.522C542.52 537.518 542.535 537.515 542.549 537.512L549.33 536.02C552.236 531.868 553.938 528.378 554.435 525.549C554.84 523.25 554.471 519.912 553.328 515.535L553.328 515.535C552.89 513.855 553.895 512.138 555.574 511.7C555.646 511.681 555.719 511.664 555.792 511.651Z" fill="#E4E4E4"/>
<path fill-rule="evenodd" clip-rule="evenodd" d="M234.141 295.726L191.201 340.68C178.461 346.654 168.076 353.123 160.048 360.084C158.268 362.391 156.395 366.759 165.068 364.529C173.741 362.299 182.963 360.344 184.705 363.131C186.446 365.917 181.757 370.446 184.922 374.062C187.032 376.472 193.564 368.339 204.519 349.663L249.79 320.769L234.141 295.726ZM454.666 241.203L428.306 250.947C470.953 308.12 493.719 338.311 496.604 341.521C503.095 348.743 500.558 364.268 499.987 372.323C511.687 373.161 504.549 356.867 519.39 358.15C532.936 359.322 545.301 365.882 555.682 352.74C556.959 351.124 557.371 346.642 551.928 345.24C538.365 341.748 517.984 334.413 514.31 330.893C509.301 326.092 489.42 296.196 454.666 241.203Z" fill="#915B3C"/>
<path fill-rule="evenodd" clip-rule="evenodd" d="M223.331 301.663C216.904 302.328 210.186 304.6 203.224 308.404C199.799 310.275 198.536 314.572 200.405 318C201.49 319.991 203.393 321.252 205.468 321.592C204.234 322.876 202.986 324.157 201.725 325.434L218.642 348.661C266.407 313.277 312.156 284.879 326.991 237.775C331.971 221.966 320.769 173.233 318.339 155.213L300.607 151.347C285.946 203.116 262.798 254.387 223.331 301.663Z" fill="#69A1AC"/>
<path fill-rule="evenodd" clip-rule="evenodd" d="M405.691 311.314C358.016 325.25 319.751 332.011 290.894 331.598C287.319 331.547 284.845 316.598 285.732 312.239C299.542 244.359 307.797 194.996 300.04 150.914C305.045 152.5 313.128 151.442 324.292 147.74C363.079 187.727 386.406 237.349 405.691 311.314Z" fill="#191847"/>
<path fill-rule="evenodd" clip-rule="evenodd" d="M416.044 317.243C417.421 315.397 417.872 312.914 417.026 310.587L415.416 306.157C414.325 303.154 411.413 301.342 408.382 301.514C407.455 299.283 406.601 297.056 405.829 294.832C399.304 276.042 401.3 256.135 397.773 237.556C426.376 254.397 455.135 287.121 484.05 335.73L511.743 321.967C509.899 318.021 508.025 314.132 506.119 310.301C509.153 307.788 511.546 298.307 508.453 297.338C505.258 296.337 501.968 295.816 498.591 295.765C457.605 219.766 403.423 168.462 336.044 141.854L327.691 143.33L318.458 144.962C335.695 212.583 290.504 374.849 337.824 498.25C385.53 500.399 445.444 456.9 513.719 471.132C502.29 420.089 444.107 368.034 416.044 317.243L416.044 317.243Z" fill="#89C5CC"/>
<path fill-rule="evenodd" clip-rule="evenodd" d="M329.925 144.505L342.226 167.653L329.397 188.901L346.465 200.802L321.927 267.211L354.316 199.539L337.486 187.472L348.886 168.683L329.925 144.505Z" fill="black" fill-opacity="0.1"/>
<path fill-rule="evenodd" clip-rule="evenodd" d="M336.338 288.612C339.755 288.009 342.037 284.747 341.436 281.328C340.834 277.908 337.576 275.626 334.159 276.229C330.742 276.833 328.46 280.094 329.062 283.514C329.664 286.933 332.921 289.216 336.338 288.612ZM334.87 325.579C338.287 324.976 340.569 321.714 339.967 318.295C339.366 314.875 336.108 312.593 332.691 313.196C329.274 313.8 326.992 317.061 327.594 320.481C328.195 323.9 331.453 326.183 334.87 325.579ZM339.589 361.453C343.006 360.85 345.288 357.588 344.686 354.169C344.084 350.749 340.826 348.467 337.409 349.07C333.992 349.674 331.71 352.935 332.312 356.355C332.914 359.774 336.172 362.057 339.589 361.453Z" fill="black" fill-opacity="0.4"/>
</svg>
