<svg width="680" height="700" viewBox="0 0 680 700" fill="none" xmlns="http://www.w3.org/2000/svg">
<path fill-rule="evenodd" clip-rule="evenodd" d="M412.331 134.282C421.305 123.748 427.378 110.839 426.363 96.3746C423.439 54.6971 365.427 63.8656 354.142 84.9008C342.857 105.936 344.198 159.293 358.783 163.053C364.599 164.552 376.989 160.88 389.6 153.278L381.684 209.28H428.421L412.331 134.282Z" fill="#915B3C"/>
<path fill-rule="evenodd" clip-rule="evenodd" d="M415.923 143.664C421.789 117.565 438.5 99.7748 435.947 88.1099C434.246 80.3332 429.711 75.4972 422.343 73.6018C418.532 58.1842 406.241 51.6264 385.471 53.9286C354.315 57.3819 335.299 70.3215 343.511 98.7942C351.06 98.7942 360.173 96.064 372.774 100.742C376.772 102.226 379.632 106.829 381.353 114.55H387.048C392.574 105.387 398.024 102.02 403.396 104.448C408.768 106.877 409.989 112.776 407.059 122.146L409.864 143.664H415.923Z" fill="#191847"/>
<path fill-rule="evenodd" clip-rule="evenodd" d="M558.895 452.717H334.947C317.739 452.717 303.79 466.668 303.79 483.877V663.047C303.79 680.257 317.739 694.207 334.947 694.207H558.895C576.103 694.207 590.053 680.257 590.053 663.047V483.877C590.053 466.668 576.103 452.717 558.895 452.717ZM527.737 507.247C532.039 507.247 535.526 510.735 535.526 515.037V631.887C535.526 636.19 532.039 639.677 527.737 639.677H366.105C361.803 639.677 358.316 636.19 358.316 631.887V515.037C358.316 510.735 361.803 507.247 366.105 507.247H527.737Z" fill="#C5CFD6"/>
<path fill-rule="evenodd" clip-rule="evenodd" d="M110.69 684.47C149.085 637.582 175.063 602.822 188.626 580.189C211.848 541.435 230.854 506.952 236.852 493.779C251.155 462.368 203.925 447.659 193.235 462.31C177.057 484.486 142.504 554.266 89.579 671.65L110.69 684.47Z" fill="#B28B67"/>
<path fill-rule="evenodd" clip-rule="evenodd" d="M189.367 670.837L260.82 490.96C276.103 458.17 202.301 436.616 191.069 451.876C165.571 486.521 104.965 623.19 97.3685 633.512L189.367 670.837Z" fill="#2F3676"/>
<path fill-rule="evenodd" clip-rule="evenodd" d="M379.673 634.764C365.754 614.459 315.126 546.147 287.551 517.883C279.627 509.761 271.895 501.965 264.582 494.701C242.845 473.108 199.559 509.401 221.256 529.069C275.289 578.049 354.127 644.17 360.714 650.066C369.945 658.328 388.42 647.524 379.673 634.764Z" fill="#915B3C"/>
<path fill-rule="evenodd" clip-rule="evenodd" d="M376.418 625.592C381.212 629.539 384.331 632.763 385.775 635.264C387.531 638.305 389.586 643.036 391.942 649.455C388.414 651.492 356.707 669.8 296.821 704.377C289.631 697.632 288.511 692.397 293.461 688.67C298.41 684.943 302.495 681.801 305.714 679.242L338.546 634.004C339.178 633.134 340.396 632.94 341.266 633.572C341.281 633.583 341.296 633.594 341.31 633.605L348.132 638.858C354.39 638.312 359.06 637.149 362.143 635.369C364.647 633.923 367.522 630.915 370.767 626.344L370.767 626.344C372.012 624.59 374.443 624.177 376.197 625.423C376.273 625.476 376.346 625.533 376.418 625.592Z" fill="#E4E4E4"/>
<path fill-rule="evenodd" clip-rule="evenodd" d="M127.206 677.463C129.384 683.279 130.474 687.631 130.474 690.518C130.474 694.03 129.889 699.155 128.719 705.892C124.645 705.892 88.0332 705.892 18.8836 705.892C16.0294 696.456 17.677 691.361 23.8265 690.609C29.9759 689.856 35.0844 689.177 39.1519 688.571L90.2022 665.811C91.1845 665.373 92.3358 665.814 92.7737 666.796C92.7812 666.813 92.7885 666.83 92.7955 666.847L96.077 674.808C101.77 677.464 106.396 678.792 109.955 678.792C112.847 678.792 116.84 677.624 121.936 675.288L121.936 675.288C123.891 674.392 126.203 675.25 127.099 677.206C127.138 677.29 127.173 677.376 127.206 677.463Z" fill="#E4E4E4"/>
<path fill-rule="evenodd" clip-rule="evenodd" d="M286.532 499.944C345.92 490.269 385.7 483.652 405.87 480.096C463.362 469.958 480.127 439.017 470.215 371.511H364.286C350.268 375.559 291.696 400.597 188.569 446.625C170.014 455.836 173.47 482.996 176.861 491.944C176.999 492.309 208.279 545.911 270.699 652.751L357.353 597.544L286.369 506.45C284.494 502.674 284.549 500.505 286.532 499.944Z" fill="#5C63AB"/>
<path fill-rule="evenodd" clip-rule="evenodd" d="M278.9 346.017L216.782 391.634C199.935 396.181 185.859 401.837 174.555 408.604C171.885 411.037 168.658 415.965 179.732 415.113C190.805 414.261 202.491 413.864 204.019 417.641C205.547 421.418 198.846 425.936 201.935 431.032C203.994 434.43 213.722 425.91 231.119 405.473L292.632 379.964L278.9 346.017ZM517.4 347.591L476.705 347.751C501.833 428.872 515.398 471.914 517.4 476.877C521.906 488.045 512.371 505.054 508.293 514.194C521.574 520.138 520.159 498.127 536.913 505.922C552.205 513.037 563.838 525.929 581.506 515.027C583.678 513.686 586.058 508.639 580.307 504.696C565.979 494.87 545.331 477.674 542.541 472.014C538.736 464.295 530.356 422.821 517.4 347.591Z" fill="#915B3C"/>
<path fill-rule="evenodd" clip-rule="evenodd" d="M401.752 176.819L384.913 173.931C322.435 227.906 296.773 331.6 220.19 386.531L238.623 409.381C371.48 392.93 404.41 266.448 401.752 176.819Z" fill="#E87613"/>
<path fill-rule="evenodd" clip-rule="evenodd" d="M475.158 388.45C407.639 388.45 357.974 388.45 326.162 388.45C319.354 388.45 320.637 378.618 321.621 373.657C332.98 316.4 377.32 254.679 377.32 173.175L420.297 166.435C455.845 223.611 468.138 294.005 475.158 388.45Z" fill="#DDE3E9"/>
<path fill-rule="evenodd" clip-rule="evenodd" d="M473.961 222.636C480.203 220.842 485.146 216.656 488.79 210.081C504.498 181.735 498.825 166.128 482.038 160.998C465.25 155.868 450.28 166.435 423.533 166.435C422.078 166.435 420.746 166.526 419.536 166.709L406.082 167.476C367.48 298.31 356.834 385.601 374.143 429.348H491.415C498.363 445.55 505.012 459.183 511.362 470.245H543.316C546.323 373.001 523.205 290.464 473.961 222.636Z" fill="#FF9B21"/>
<path fill-rule="evenodd" clip-rule="evenodd" d="M465.878 362.154C462.19 393.015 456.196 415.413 447.895 429.347H491.415C483.31 410.447 474.798 388.049 465.878 362.154V362.154Z" fill="black" fill-opacity="0.1"/>
</svg>
